<?xml version="1.0" standalone="no"?>
<!DOCTYPE svg PUBLIC "-//W3C//DTD SVG 20010904//EN"
 "http://www.w3.org/TR/2001/REC-SVG-20010904/DTD/svg10.dtd">
<svg version="1.0" xmlns="http://www.w3.org/2000/svg"
 width="500.000000pt" height="500.000000pt" viewBox="0 0 500.000000 500.000000"
 preserveAspectRatio="xMidYMid meet">

<g transform="translate(0.000000,500.000000) scale(0.100000,-0.100000)"
fill="#000000" stroke="none">
<path d="M2365 3893 c-209 -19 -480 -128 -666 -268 -98 -73 -235 -212 -301
-305 -106 -150 -193 -349 -234 -540 -26 -120 -27 -419 -1 -540 99 -465 402
-836 828 -1016 96 -41 191 -66 202 -55 5 5 -31 21 -79 36 -198 61 -372 166
-529 317 -206 197 -334 429 -397 716 -32 144 -31 385 1 542 56 271 174 493
366 686 118 118 211 186 355 259 125 62 224 98 357 127 126 27 374 29 503 5
90 -17 135 -7 53 12 -126 29 -304 38 -458 24z"/>
<path d="M3310 3615 c-9 -11 -8 -19 4 -37 9 -12 16 -28 16 -35 0 -21 -28 -15
-44 9 -11 16 -16 18 -16 7 0 -22 20 -39 46 -39 32 0 38 16 17 50 -23 40 -5 62
26 31 12 -12 21 -17 21 -12 0 10 -39 41 -51 41 -4 0 -12 -7 -19 -15z"/>
<path d="M3490 3435 c-28 -28 -36 -32 -49 -23 -9 7 -3 -2 13 -20 30 -32 49
-45 26 -17 -11 13 -8 21 20 50 19 19 31 37 29 40 -3 2 -20 -11 -39 -30z"/>
<path d="M3653 3299 c23 -13 22 -56 -2 -69 -32 -16 -49 -12 -65 18 -8 15 -15
22 -16 17 0 -22 32 -55 54 -55 25 0 51 18 59 41 6 19 -18 59 -36 59 -7 0 -4
-5 6 -11z"/>
<path d="M2610 2700 l0 -510 60 0 60 0 0 479 0 479 -26 31 c-19 24 -34 31 -60
31 l-34 0 0 -510z"/>
<path d="M3050 3172 c88 -88 96 -312 15 -418 -15 -20 -37 -40 -49 -45 -17 -8
-14 -9 16 -5 116 14 218 135 218 257 0 47 -39 134 -77 174 -38 39 -103 74
-139 75 -19 0 -17 -4 16 -38z"/>
<path d="M3721 3084 c-19 -8 -32 -17 -29 -20 3 -2 22 3 41 12 30 14 39 15 52
4 25 -21 17 -38 -26 -60 -23 -12 -39 -24 -36 -26 10 -10 87 37 87 52 0 26 -20
54 -38 54 -9 -1 -32 -7 -51 -16z"/>
<path d="M3810 2867 c-20 -11 -25 -20 -24 -50 1 -21 3 -40 6 -42 4 -4 57 7 95
20 17 6 -3 62 -27 75 -23 12 -20 12 -50 -3z m66 -32 c8 -33 6 -35 -42 -38 -30
-1 -39 2 -42 16 -5 26 16 47 49 47 22 0 30 -6 35 -25z"/>
<path d="M1942 2293 l3 -518 5 498 5 499 244 -496 244 -496 69 0 c37 0 68 2
68 4 0 2 -105 218 -234 480 -216 437 -238 477 -276 505 l-41 30 38 4 c21 2 1
4 -44 5 l-83 2 2 -517z"/>
<path d="M3842 2624 c-24 -17 -29 -53 -10 -72 7 -7 26 -12 43 -12 17 0 36 5
43 12 28 28 3 88 -36 88 -10 0 -28 -7 -40 -16z m76 -28 c5 -23 -16 -46 -42
-46 -46 0 -64 54 -23 69 28 11 61 -1 65 -23z"/>
<path d="M3824 2376 c-3 -8 -4 -25 -2 -38 3 -21 9 -23 58 -24 30 -1 43 0 28 3
-35 5 -36 27 -3 49 14 9 23 19 21 22 -3 3 -13 -1 -21 -8 -12 -10 -19 -10 -27
-2 -16 16 -48 15 -54 -2z m46 -25 c0 -24 -3 -28 -20 -24 -31 8 -25 53 7 53 8
0 13 -12 13 -29z"/>
<path d="M3782 2140 c-10 -29 -9 -32 16 -41 36 -14 96 -23 67 -11 -14 7 -20
19 -20 43 0 29 -4 34 -26 37 -22 3 -29 -2 -37 -28z m52 12 c3 -5 3 -18 0 -29
-4 -14 -12 -19 -25 -16 -18 5 -26 33 -12 46 9 10 31 9 37 -1z"/>
<path d="M3642 1808 c-17 -17 -15 -55 2 -61 8 -3 27 3 41 15 19 15 29 18 38 9
8 -8 4 -17 -13 -36 -13 -14 -18 -25 -12 -25 17 0 45 47 38 65 -7 19 -40 19
-56 0 -15 -18 -40 -20 -40 -3 0 6 7 20 17 30 18 20 4 25 -15 6z"/>
<path d="M3530 1640 c0 -5 5 -10 10 -10 6 0 10 5 10 10 0 6 -4 10 -10 10 -5 0
-10 -4 -10 -10z"/>
<path d="M3403 1481 c3 -16 13 -44 22 -62 9 -20 14 -25 11 -12 -5 27 28 59 58
56 11 -2 -3 8 -33 22 -29 14 -56 25 -59 25 -2 0 -2 -13 1 -29z m46 0 c13 -8
13 -12 1 -26 -13 -16 -15 -16 -27 1 -23 32 -8 46 26 25z"/>
<path d="M3250 1385 c0 -6 7 -21 16 -33 22 -32 12 -37 -37 -18 -23 9 -44 15
-46 12 -2 -2 8 -23 23 -45 15 -23 29 -39 32 -37 2 3 -6 19 -18 35 -12 17 -20
31 -17 31 2 0 25 -7 51 -16 26 -9 49 -14 51 -12 2 2 -9 24 -25 48 -17 25 -30
40 -30 35z"/>
<path d="M3006 1229 c-3 -17 -6 -43 -6 -57 0 -26 0 -26 15 -5 16 23 52 36 61
22 3 -5 10 -9 17 -9 6 0 -7 18 -28 40 -21 22 -42 40 -46 40 -3 0 -9 -14 -13
-31z m38 -8 c16 -17 16 -19 -4 -24 -16 -4 -20 0 -20 19 0 29 2 29 24 5z"/>
<path d="M2835 1168 c3 -21 3 -38 -2 -38 -4 0 -22 14 -40 32 -18 17 -35 30
-37 27 -3 -2 2 -29 9 -59 13 -51 14 -52 10 -12 -5 39 -4 42 12 33 10 -5 27
-19 37 -30 27 -30 36 -26 29 12 -10 50 -24 79 -18 35z"/>
</g>
</svg>
